# xmcd
# Track frame offsets:
# 150
# 12031
# 23552
# 40923
# 59749
# 74825
# 86931
# 99157
# 115283
# 125754
# 136703
# 148854
# 158275
# 173951
# 190182
# 207583
# 222479
# 235829
# 251580
# 264631
#
# Disc length: 3651 seconds
# Revision: 0
# Processed by: cddbd v1.5.2PL0 Copyright (c) Steve Scherf et al.
# Submitted via: VisiTrax 2.11.1.266 - For more info visit www.synapsa.com
#
DISCID=2a0e4114
DTITLE=Various Artist - 100 Country Hits
DYEAR=2010
DGENRE=Country
TTITLE0=Johnny Cash - Ring Of Fire
TTITLE1=Willie Nelson - On The road Again
TTITLE2=Alan Jackson - It's Five O'clock somewhere
TTITLE3=Dolly Parton and Kenny Rogers - Islands in the stream
TTITLE4=Carrie Underwood - Before he cheats
TTITLE5=Tammy Wynette - Stand by your man
TTITLE6=Charlie Rich - The most beautiful girl
TTITLE7=Patty Loveless - Blame it on your heart
TTITLE8=Jim Reeves - He'll have to go
TTITLE9=The Fireflies - Human Nature
TTITLE10=Gene Autry - Buttons and bows
TTITLE11=Barbara Mandrell - Tonight my baby's coming home
TTITLE12=Kris Kristofferson - Why me
TTITLE13=Earl Thomas Conley and Emylou Harris - We Believe in happy endings
TTITLE14=Kenny Chesney - You had me from hello
TTITLE15=Don William - Back in my younger days
TTITLE16=Carl Butler - Don't let me cross over
TTITLE17=Doug Stone - A jukebox with a country song
TTITLE18=Martina McBride - I love you
TTITLE19=Elvis Presley - Don't be cruel
EXTD=Sony Music\n88697736142
EXTT0=
EXTT1=
EXTT2=
EXTT3=
EXTT4=
EXTT5=
EXTT6=
EXTT7=
EXTT8=
EXTT9=
EXTT10=
EXTT11=
EXTT12=
EXTT13=
EXTT14=
EXTT15=
EXTT16=
EXTT17=
EXTT18=
EXTT19=
PLAYORDER=
